<?xml version="1.0" encoding="UTF-8" standalone="no"?>
<!-- Created with Inkscape (http://www.inkscape.org/) -->

<svg
   width="210mm"
   height="297mm"
   viewBox="0 0 210 297"
   version="1.1"
   id="svg5980"
   inkscape:version="1.1.2 (b8e25be8, 2022-02-05)"
   sodipodi:docname="logo_glouton_v2.svg"
   inkscape:export-filename="/home/lionel/Bleemeo/Marketing/logo/squirreldb.png"
   inkscape:export-xdpi="49.975227"
   inkscape:export-ydpi="49.975227"
   xmlns:inkscape="http://www.inkscape.org/namespaces/inkscape"
   xmlns:sodipodi="http://sodipodi.sourceforge.net/DTD/sodipodi-0.dtd"
   xmlns="http://www.w3.org/2000/svg"
   xmlns:svg="http://www.w3.org/2000/svg"
   xmlns:rdf="http://www.w3.org/1999/02/22-rdf-syntax-ns#"
   xmlns:cc="http://creativecommons.org/ns#"
   xmlns:dc="http://purl.org/dc/elements/1.1/">
  <defs
     id="defs5974" />
  <sodipodi:namedview
     id="base"
     pagecolor="#ffffff"
     bordercolor="#666666"
     borderopacity="1.0"
     inkscape:pageopacity="0.0"
     inkscape:pageshadow="2"
     inkscape:zoom="0.19712437"
     inkscape:cx="-682.31037"
     inkscape:cy="925.81147"
     inkscape:document-units="mm"
     inkscape:current-layer="layer1"
     showgrid="false"
     inkscape:window-width="1920"
     inkscape:window-height="1073"
     inkscape:window-x="0"
     inkscape:window-y="25"
     inkscape:window-maximized="0"
     inkscape:pagecheckerboard="0" />
  <metadata
     id="metadata5977">
    <rdf:RDF>
      <cc:Work
         rdf:about="">
        <dc:format>image/svg+xml</dc:format>
        <dc:type
           rdf:resource="http://purl.org/dc/dcmitype/StillImage" />
      </cc:Work>
    </rdf:RDF>
  </metadata>
  <g
     inkscape:label="Layer 1"
     inkscape:groupmode="layer"
     id="layer1">
    <path
       id="path3855-2-1-1-7"
       d="m 26.011475,160.87185 c 0.33172,6.83426 7.16599,3.6496 10.21809,1.52605 2.91955,-2.05694 3.78216,-0.33172 4.04727,-4.31304 0.19916,-2.65377 0.46427,-5.2416 0.33172,-7.89537 -4.4456,-0.39833 -9.22292,0.66344 -12.87253,3.31721 -1.92372,1.32689 -5.37415,5.70654 -1.72522,7.36515 M 162.23102,244.8726 c 5.2416,3.25126 14.86285,13.07168 6.96682,17.849 -7.56431,6.90086 -11.81008,-7.63092 -18.44584,-9.62125 2.85294,-3.91471 6.43593,-7.4977 11.47902,-8.22775 z m -93.821165,11.08068 c -6.17081,0.92922 -9.62125,6.50254 -14.79623,9.35614 -4.84393,2.85294 -6.7017,-0.92922 -7.10003,-1.72522 -0.72939,-0.33172 -0.66345,0.33173 -1.85778,-0.8626 -4.51154,-7.10004 4.64477,-12.27502 9.42209,-15.79207 6.63509,-1.32688 10.81557,4.4456 14.33195,9.02375 z M 191.35921,160.00924 c -0.33172,6.83426 -7.16597,3.6496 -10.21808,1.52605 -2.91954,-2.05694 -3.78215,-0.33172 -4.04726,-4.31304 -0.19983,-2.65377 -0.46495,-5.2416 -0.33172,-7.89537 4.44493,-0.39833 9.22225,0.66345 12.87185,3.31722 1.85843,1.32688 5.37481,5.70653 1.72521,7.36514"
       inkscape:connector-curvature="0"
       style="fill:#f6d2a2;stroke-width:0.666107" />
    <path
       id="path3857-4-7-3-1"
       d="M 173.2451,76.67193 C 196.93253,68.31162 178.42075,35.86622 157.78476,50.19751 144.24947,38.58593 125.60513,36.46239 106.03092,36.46239 86.856355,37.98977 68.609025,41.50615 55.869725,52.65278 35.299685,39.38193 16.323615,71.23051 40.475335,79.25976 c -6.76765,26.27459 0.92855,53.08073 -0.13323,79.82026 -0.99516,24.01982 -7.29853,56.19944 6.03826,77.76399 11.34647,18.44583 35.76329,25.01498 55.868385,25.74503 25.67777,0.92855 56.79628,-5.37482 69.27047,-30.25657 11.9433,-23.68743 8.62608,-53.21395 7.10003,-78.75916 -1.52605,-25.81097 1.32689,-52.01962 -5.37481,-76.90204 z"
       inkscape:connector-curvature="0"
       style="fill:#69d7e2;stroke-width:0.666107" />
    <path
       id="path3859-8-2-7-5"
       d="m 193.15037,155.96197 c -0.66344,-1.39349 -1.92371,-2.98615 -3.11804,-3.84876 -3.0521,-2.1895 -6.96748,-3.38382 -11.01475,-3.51638 -0.13255,-4.11388 -0.26511,-8.62608 -0.26511,-14.33196 v -5.17565 c -0.0666,-16.32229 -0.26577,-23.48826 -1.19433,-32.44607 -0.73005,-7.03276 -1.85843,-13.53529 -3.45043,-19.6395 5.37482,-2.05693 8.8912,-5.44076 10.28469,-9.82041 1.32689,-4.04727 0.66344,-8.62542 -1.59199,-12.67269 -2.32272,-3.98132 -6.03826,-6.96748 -10.35131,-8.16114 -4.64476,-1.26094 -9.68719,-0.33172 -14.53112,2.91888 -4.31304,-3.64893 -9.28886,-6.43592 -14.86284,-8.55947 -9.88636,-3.64827 -21.36472,-5.04177 -36.95761,-5.04177 v 0.66345 l -0.0666,-0.66345 c -16.654015,1.32689 -28.995645,3.91471 -39.213725,8.8912 -4.11388,1.99033 -7.76281,4.37899 -10.94747,7.16598 -4.91054,-3.0521 -10.01958,-3.78216 -14.73029,-2.32205 -4.37898,1.32688 -8.16114,4.4456 -10.41725,8.49287 -2.25611,4.04726 -2.78699,8.69202 -1.26094,12.67335 1.52606,3.98065 5.04244,7.09936 10.2847,9.02375 -1.65861,6.70103 -2.52122,13.80106 -2.65377,21.63049 -0.13322,7.63025 0.1985,13.73512 1.39283,27.53553 0.86261,10.28469 1.19433,14.9954 1.32755,20.70193 -4.51221,-0.19916 -9.02376,0.99517 -12.40825,3.45044 -1.19433,0.86261 -2.52121,2.38866 -3.11805,3.8481 -0.86261,1.85844 -0.53088,3.51704 1.19433,4.51221 0.26511,3.18465 2.05694,4.64409 4.77732,4.37898 1.99034,-0.19916 4.379,-1.26094 6.43594,-2.72038 a 7.4657265,7.4657265 0 0 1 1.39349,-0.79599 c 0.19917,-0.0666 0.33172,-0.13323 0.53089,-0.19984 0,0 0.39767,-0.13189 0.53089,-0.1985 0.1985,-0.0666 0.39766,-0.13322 0.53022,-0.26577 -0.13256,3.11871 -0.39767,6.36998 -0.99517,13.80173 -0.66344,8.35964 -0.99516,12.93846 -1.12771,18.0475 -0.5975,18.97606 1.6586,32.77713 8.42625,43.72526 2.12355,3.45043 4.71137,6.50254 7.76347,9.28953 -0.59749,0.39766 -3.11871,2.2561 -3.91471,2.85293 -2.78699,2.12355 -4.7107,3.91471 -5.83909,5.90504 -1.45944,2.58783 -1.45944,5.17565 0.19917,7.89603 l 0.0666,0.0666 0.0666,0.0666 c 0.72939,0.72939 1.12772,0.92856 1.6586,0.92856 h 0.19784 c 0.0666,0.13322 0.13322,0.19916 0.19983,0.33172 0.1985,0.33172 0.39767,0.59683 0.59683,0.86261 1.65861,1.92438 3.98066,2.38866 7.09937,0.53088 1.65861,-0.8626 2.85294,-1.85843 5.37415,-3.98132 l 0.13322,-0.13322 c 4.04727,-3.44977 6.03759,-4.71004 9.02375,-5.17498 l 1.06178,-0.19917 c 0.39766,0.19983 0.79599,0.33239 1.26027,0.53089 9.42208,3.78215 20.36955,5.83909 31.450905,6.23742 14.33196,0.53089 28.13303,-1.26094 39.81055,-5.50737 3.11872,-1.12772 6.03826,-2.45527 8.82525,-3.91471 1.72522,0.66344 3.18399,2.05694 5.97165,5.30821 0.13256,0.13322 0.13256,0.13322 0.1985,0.26511 0.13322,0.13322 0.13322,0.19983 0.19983,0.26577 0.13189,0.19917 0.33106,0.33173 0.46361,0.53089 2.19016,2.58716 3.65027,3.8481 5.30888,4.57815 2.18882,0.92856 4.31237,0.46428 6.50187,-1.52605 3.84876,-2.38866 4.11387,-6.1042 1.59199,-10.3513 -1.79116,-2.98549 -4.90921,-6.1042 -7.82875,-8.09453 3.45043,-3.38382 6.43592,-7.43109 8.75797,-12.00991 6.36998,-12.73929 8.82525,-27.60214 8.6927,-46.71141 -0.0666,-6.76765 -0.33239,-12.67269 -1.06178,-23.95321 v -0.33105 c 0.33172,0.13255 0.66344,0.33172 0.99517,0.59683 2.05693,1.3935 4.44559,2.52121 6.43592,2.72038 2.72038,0.26578 4.51221,-1.19433 4.77732,-4.37899 1.65861,-1.06177 1.99033,-2.72038 1.12772,-4.57815 z M 172.05144,47.74224 c 3.98132,1.06177 7.43175,3.84877 9.55464,7.56431 2.12354,3.71555 2.72038,7.89603 1.52605,11.61158 -1.26028,3.91471 -4.4456,7.03342 -9.42209,8.89119 a 107.93597,107.93597 0 0 0 -3.51637,-10.48385 c 1.92438,-1.65861 2.85293,-3.71555 1.32688,-6.63443 -1.52538,-2.92021 -4.17982,-3.25193 -6.90087,-2.38933 -1.72521,-2.2561 -3.64893,-4.24643 -5.63926,-6.1042 4.37899,-2.78699 8.8912,-3.58299 13.07102,-2.45527 z M 30.590295,70.1694 c -1.3935,-3.58366 -0.92922,-7.82942 1.19434,-11.54497 2.12288,-3.71621 5.57332,-6.63509 9.68719,-7.82942 4.24643,-1.26094 8.82459,-0.66411 13.33679,1.99033 a 43.657314,43.657314 0 0 0 -6.90086,7.89603 c -3.45044,-1.79183 -6.96682,-2.12355 -8.95714,1.52538 -2.05694,3.91538 0.33172,6.36998 3.71554,8.22776 -0.46427,1.12838 -0.92922,2.32271 -1.32688,3.51704 -0.46495,1.45944 -0.92922,2.98549 -1.32689,4.51154 -4.84393,-1.85777 -8.02859,-4.7107 -9.42209,-8.29369 z m 8.0286,90.43734 c -0.0666,0 -0.46495,0.13255 -0.46495,0.1985 -0.1985,0.0666 -0.39766,0.13322 -0.59683,0.26577 -0.53089,0.19917 -1.06177,0.53089 -1.59199,0.92856 -1.85844,1.32755 -4.11455,2.32271 -5.83977,2.45527 -1.99033,0.19916 -3.11805,-0.66344 -3.31722,-3.0521 1.3935,-0.46428 1.99033,-0.796 2.52122,-1.592 l -1.06178,-0.79666 c -0.39766,0.53088 -0.79599,0.73005 -1.99032,1.12772 -0.0666,0 -0.0666,0 -0.13322,0.0666 -1.06111,-0.5975 -1.26028,-1.52605 -0.66278,-2.85294 0.53089,-1.19433 1.72522,-2.58783 2.72038,-3.31721 3.18467,-2.32272 7.4311,-3.45044 11.67753,-3.18533 0,1.65861 0.0666,3.31722 0,4.90921 0,0.19983 0,0.33239 -0.0666,0.53156 -0.0659,0.92855 -0.0659,1.32688 -0.13256,1.79182 -0.1985,1.92372 -0.33172,2.18883 -1.0611,2.52122 z m 20.03782,100.12386 -0.13322,0.13322 c -2.4546,2.12289 -3.64893,2.9855 -5.17498,3.8481 -2.52122,1.52605 -4.24643,1.19433 -5.44076,-0.26511 -0.19917,-0.19983 -0.33172,-0.46494 -0.46428,-0.66411 -0.0666,-0.0666 -0.13322,-0.1985 -0.19917,-0.26511 v -0.0666 c 0.13323,-1.19433 0.5975,-2.05693 1.79183,-3.91471 0.0666,-0.0666 0.0666,-0.0666 0.0666,-0.13255 0.72939,-1.06178 1.06111,-1.65861 1.39283,-2.38866 l -1.19433,-0.53089 c -0.26511,0.5975 -0.59683,1.12839 -1.26094,2.18949 -0.0666,0.0666 -0.0666,0.0666 -0.0666,0.13323 -1.19366,1.72521 -1.72522,2.78632 -1.99033,3.98065 h -0.0666 -0.19916 c -0.13322,-0.0666 -0.33172,-0.19916 -0.59683,-0.46428 -2.58783,-4.11387 -0.53089,-7.63025 5.30754,-12.0099 0.73005,-0.53022 3.18532,-2.25544 3.84876,-2.78633 0.13322,0 0.26511,-0.0666 0.39833,-0.13322 3.58233,3.05277 7.76281,5.70654 12.40758,7.89603 0,0.0666 0.0666,0.13322 0.13255,0.19983 -2.72038,0.66278 -4.84393,2.05628 -8.55947,5.24093 z m 111.404395,-7.23192 c 2.05694,3.45043 1.99033,6.23676 -0.5975,8.16114 -0.1985,-0.39833 -0.33172,-0.86261 -0.59683,-1.52605 0,-0.0666 0,-0.0666 -0.0666,-0.13322 -0.92855,-2.52122 -1.52538,-3.58232 -2.65377,-4.77665 l -0.92922,0.92855 c 0.99516,0.92922 1.46011,1.92438 2.38866,4.24643 0,0.0666 0,0.0666 0.0666,0.13322 0.33172,0.86195 0.53089,1.39283 0.73005,1.85778 -1.72521,1.45944 -3.25126,1.72521 -4.84393,0.99516 -1.39349,-0.5975 -2.72038,-1.85844 -4.84393,-4.24643 -0.13255,-0.13322 -0.26511,-0.33172 -0.39766,-0.53089 -0.0666,-0.0666 -0.13322,-0.13322 -0.19983,-0.26578 -0.13189,-0.13255 -0.13189,-0.13255 -0.1985,-0.26511 -2.45527,-2.85293 -3.91471,-4.37898 -5.50737,-5.24226 3.71621,-2.12288 7.03408,-4.51154 10.01958,-7.29853 2.78632,2.05694 5.90503,5.10904 7.63025,7.96264 z m 0.92855,-21.49794 c -5.70587,11.47903 -15.79139,19.57356 -29.32735,24.48343 -11.54497,4.18049 -25.21348,5.90571 -39.34628,5.37482 -24.350865,-0.86261 -45.450475,-9.35547 -55.336835,-25.41265 -6.63509,-10.68302 -8.82525,-24.28492 -8.22775,-42.99587 0.19917,-5.10904 0.46428,-9.68719 1.12772,-18.0475 0.73005,-9.42208 0.92922,-12.14246 1.12839,-16.38889 0.13255,-3.05211 0.13255,-6.17082 0.0666,-9.48803 -0.13323,-5.83909 -0.46495,-10.48386 -1.32755,-20.9011 -1.19433,-13.80107 -1.52606,-19.83934 -1.3935,-27.40365 0.19983,-9.95163 1.52605,-18.71094 4.31304,-27.00397 4.51021,-13.47068 12.80524,-22.56105 24.74854,-28.46542 10.01891,-4.90921 22.16138,-7.43109 38.682835,-8.75864 15.46034,0 26.73953,1.3935 36.49333,4.97649 11.67752,4.31304 20.36955,11.87668 26.3412,23.48893 3.84876,9.42141 6.10487,19.57355 7.2992,31.25107 0.92855,8.8912 1.12772,16.05717 1.19433,32.31285 v 5.17565 c 0.0666,8.02859 0.1985,13.66852 0.53089,19.30844 0.13255,2.1895 0.1985,3.11872 0.53022,8.36031 0.73005,11.27986 0.99583,17.11895 1.06177,23.8866 0.13322,19.04266 -2.2561,33.70634 -8.55947,46.24713 z m 20.30361,-72.65494 c -0.0666,0 -0.13256,-0.0666 -0.1985,-0.0666 -1.19433,-0.39767 -1.59266,-0.66345 -1.99099,-1.12772 l -1.06178,0.796 c 0.5975,0.79666 1.19433,1.12838 2.52188,1.59199 -0.26577,2.38933 -1.39349,3.25194 -3.31721,3.05277 -1.72522,-0.13322 -3.98199,-1.19433 -5.83976,-2.45527 -0.53089,-0.39767 -1.06111,-0.66344 -1.592,-0.92855 -0.0666,0 -0.13322,-0.0666 -0.19983,-0.0666 -0.26511,-3.64894 -0.26511,-4.57816 -0.39766,-6.50254 l -0.19917,-3.58299 c 3.71621,0.0666 7.36514,1.19433 10.15147,3.25127 0.99583,0.73005 2.19016,2.12355 2.72105,3.31721 0.66344,1.12839 0.53088,2.12355 -0.5975,2.72105 z"
       inkscape:connector-curvature="0"
       style="stroke-width:0.666107" />
    <circle
       r="37.52042"
       cy="163.92859"
       cx="107.10104"
       id="path838-3-3-8-2"
       style="fill:#800080;fill-opacity:1;stroke:#000000;stroke-width:3.40818;stroke-linecap:round;stroke-linejoin:bevel;stroke-miterlimit:4;stroke-dasharray:none;stroke-dashoffset:0;stroke-opacity:1" />
    <text
       id="text836-9-6-8-1"
       y="184.95001"
       x="86.108345"
       style="font-style:normal;font-weight:normal;font-size:58.8541px;line-height:1.25;font-family:sans-serif;letter-spacing:0px;word-spacing:0px;fill:#ffffff;fill-opacity:1;stroke:none;stroke-width:1.47136"
       xml:space="preserve"><tspan
         style="font-style:normal;font-variant:normal;font-weight:normal;font-stretch:normal;font-family:Ubuntu;-inkscape-font-specification:Ubuntu;fill:#ffffff;fill-opacity:1;stroke-width:1.47136"
         y="184.95001"
         x="86.108345"
         id="tspan834-0-5-3-1"
         sodipodi:role="line">G</tspan></text>
    <path
       style="fill:#800080;fill-opacity:1;stroke:none;stroke-width:1;stroke-miterlimit:4;stroke-dasharray:none;stroke-opacity:1"
       d="m 38.663625,205.14675 c 46.86755,8.34426 93.735105,10.71446 140.602655,-1.03132 -1.02861,6.94658 -5.52412,23.36299 -5.52412,23.36299 -23.76629,6.75092 -44.55021,20.54175 -42.9477,33.70314 l -37.814895,1.37508 c -8.25373,-26.01073 -33.31673,-20.53662 -46.07976,-28.51013 -7.03441,-4.39463 -6.73772,-19.54996 -8.23618,-28.89976 z"
       id="rect3927-5-5-8-0"
       inkscape:connector-curvature="0"
       sodipodi:nodetypes="ccsccsc" />
    <path
       style="fill:#800080;fill-opacity:1;stroke:none;stroke-width:1;stroke-miterlimit:4;stroke-dasharray:none;stroke-opacity:1"
       d="m 65.770705,46.60556 c 46.867555,8.34426 36.943025,10.10675 83.810585,-1.63903 10.10287,4.87254 23.61873,20.68463 24.89105,38.60037 -34.7788,3.61949 -99.594365,24.70797 -133.997005,-4.30714 8.40475,-21.86002 14.33328,-26.47442 25.29537,-32.6542 z"
       id="rect3927-7-2-8-1-1"
       inkscape:connector-curvature="0"
       sodipodi:nodetypes="ccccc" />
    <path
       style="fill:#000000;fill-opacity:1;stroke:none;stroke-width:1.49681;stroke-miterlimit:4;stroke-dasharray:none;stroke-opacity:1"
       d="m 38.663615,205.14675 c 46.98215,7.30661 93.964295,10.02033 140.946445,0 v 6.18789 c -46.98215,11.32326 -93.964295,7.78716 -140.946445,0 z"
       id="rect3930-2-1-5-8"
       inkscape:connector-curvature="0"
       sodipodi:nodetypes="ccccc" />
    <path
       id="path3861-7-4-3-7"
       d="m 116.09046,104.89089 c 0.0666,3.38382 0.73006,7.09936 0.13256,10.68236 -0.92922,1.72521 -2.65377,1.92505 -4.17982,2.58782 -2.12355,-0.33172 -3.91538,-1.72521 -4.77732,-3.71555 -0.53089,-4.04726 0.13255,-7.89603 0.33172,-11.94329 0,-0.13322 2.52121,0.0666 4.77732,0.73005 1.92371,0.59683 3.71554,1.592 3.71554,1.65861 z M 97.312905,105.156 c -1.85844,7.03409 2.45527,18.51244 9.554645,9.09036 -0.53089,-3.98132 0.0666,-7.82942 0.26511,-11.74413 0.0666,-0.33172 -9.753145,2.18949 -9.819755,2.65377 z"
       inkscape:connector-curvature="0"
       style="fill:#ffffff;stroke-width:0.666107" />
    <path
       id="path3863-3-7-5-6"
       d="m 116.88646,108.0096 c -0.13322,-1.99099 -0.19917,-2.78699 -0.19917,-3.78216 v -0.46427 l -0.46427,-0.13322 -8.36031,-2.58716 v -0.46495 l -0.86261,0.19984 h -0.0666 v 0.0659 l -9.421425,2.38866 -0.33172,0.0666 -0.13322,0.33105 c -1.45944,3.51705 -1.12772,8.82525 0.73005,12.07653 2.12355,3.71554 5.573315,3.78149 9.090375,-0.46494 a 6.7889618,6.7889618 0 0 0 4.97581,3.58365 h 0.19984 l 0.1985,-0.0666 c 0.26577,-0.13322 0.53088,-0.19983 0.99583,-0.39833 0.0666,0 0.0666,0 0.13255,-0.0666 1.92372,-0.66345 2.72038,-1.19433 3.38383,-2.45461 l 0.0666,-0.0666 v -0.13255 c 0.1985,-1.19434 0.26511,-2.45528 0.26511,-3.84811 0,-0.99583 -0.0666,-1.92505 -0.19917,-3.78215 z m -10.61641,-2.45527 c -0.0666,1.19433 -0.13256,1.65861 -0.1985,2.32205 -0.13322,2.45527 -0.13322,4.31304 0.0666,6.17081 -3.11939,3.98133 -5.57399,3.98133 -7.232595,0.99517 -1.59266,-2.78633 -1.92505,-7.4977 -0.73005,-10.61575 l 8.359645,-2.12355 c -0.066,0.86261 -0.13189,1.72522 -0.26511,3.25127 z m 9.28953,9.82042 c -0.46428,0.79599 -1.06178,1.19433 -2.65444,1.72521 -0.0666,0 -0.0666,0 -0.13256,0.066 -0.39766,0.13322 -0.66344,0.26511 -0.8626,0.33172 -1.79183,-0.33172 -3.31722,-1.52605 -4.04727,-3.18466 -0.19917,-1.79183 -0.19917,-3.6496 -0.0666,-6.1042 0.0666,-0.66411 0.0666,-1.12839 0.19983,-2.32272 0.13189,-1.52538 0.1985,-2.4546 0.1985,-3.31721 l 7.23259,2.18949 c 0,0.86261 0.0666,1.65861 0.19917,3.38383 0.13255,1.79182 0.1985,2.72038 0.1985,3.78215 0,1.26027 -0.0666,2.38866 -0.26511,3.45044 z"
       inkscape:connector-curvature="0"
       style="stroke-width:0.666107" />
    <g
       id="g3873-7-1-4-0"
       transform="matrix(0.66610693,0,0,0.66610693,55.846415,50.1722)">
      <path
         id="path3865-9-3-3-0"
         d="m 2.291,38.749 c 9.164,35.66 66.241,26.496 64.05,-9.264 C 63.75,-13.348 -6.475,-5.08 2.29,38.749"
         inkscape:connector-curvature="0"
         style="fill:#ffffff" />
      <path
         id="path3867-0-8-6-9"
         d="M 67.337,29.385 C 66.739,19.025 62.157,10.957 54.587,5.877 47.813,1.295 38.848,-0.498 29.983,0.597 21.118,1.794 12.949,5.778 7.57,12.054 1.594,19.026 -0.697,28.19 1.395,38.749 l 0.896,-0.2 -0.896,0.2 C 10.758,75.405 69.528,66.54 67.337,29.385 Z M 3.187,38.55 C 1.195,28.49 3.387,19.923 8.965,13.448 14.045,7.571 21.715,3.687 30.182,2.591 c 8.467,-1.096 16.934,0.598 23.31,4.98 7.071,4.782 11.355,12.253 11.952,22.114 2.092,34.764 -53.391,43.132 -62.256,8.865 z"
         inkscape:connector-curvature="0" />
      <ellipse
         id="ellipse3869-2-4-5-5"
         ry="10.459"
         rx="9.6619997"
         cy="32.872002"
         cx="18.030001" />
      <ellipse
         id="ellipse3871-3-8-9-6"
         ry="2.6889999"
         rx="2.2909999"
         cy="35.262001"
         cx="22.412001"
         style="fill:#ffffff" />
    </g>
    <g
       id="g3883-9-0-5-2"
       transform="matrix(0.66610693,0,0,0.66610693,109.89567,47.58904)">
      <path
         id="path3875-9-4-4-8"
         d="M 1.195,35.96 C 8.268,76.9 75.206,66.042 65.544,24.803 56.878,-12.252 -1.196,-1.992 1.195,35.96"
         inkscape:connector-curvature="0"
         style="fill:#ffffff" />
      <path
         id="path3877-7-6-9-5"
         d="M 66.44,24.604 C 57.575,-13.547 -2.19,-3.088 0.2,36.059 v 0.1 C 3.486,55.483 20.72,65.345 39.745,62.157 48.41,60.663 56.18,56.48 61.26,50.304 66.838,43.43 68.83,34.565 66.44,24.604 Z M 59.767,49.108 C 54.985,54.886 47.714,58.87 39.446,60.265 21.416,63.253 5.279,53.989 2.092,35.86 -0.1,-0.996 56.28,-10.858 64.647,25.002 c 2.192,9.463 0.399,17.731 -4.88,24.106 z"
         inkscape:connector-curvature="0" />
      <ellipse
         id="ellipse3879-0-0-1-9"
         ry="10.459"
         rx="9.4630003"
         cy="34.167"
         cx="17.631001" />
      <ellipse
         id="ellipse3881-3-3-7-4"
         ry="2.6889999"
         rx="2.191"
         cy="36.556999"
         cx="22.014"
         style="fill:#ffffff" />
    </g>
    <g
       id="g3891-9-2-5-3"
       transform="matrix(0.66610693,0,0,0.66610693,23.556205,35.53383)">
      <path
         id="path3885-8-6-5-9"
         d="m 112.785,83.002 c -7.87,0.697 -14.245,9.961 -10.16,17.332 5.378,9.762 17.431,-0.896 24.902,0.1 8.666,0.2 15.739,9.164 22.612,1.594 7.67,-8.368 -3.287,-16.536 -11.954,-20.122 z"
         inkscape:connector-curvature="0"
         style="fill:#f6d2a2" />
      <path
         id="path3887-6-9-4-0"
         d="m 151.135,89.676 c -2.69,-3.387 -7.371,-6.475 -12.452,-8.567 l -0.199,-0.1 h -0.199 l -25.5,0.997 c -8.866,0.797 -15.24,11.057 -10.958,18.826 1.694,2.989 3.985,4.483 7.073,4.682 2.29,0.1 4.682,-0.398 8.367,-1.693 0.299,-0.1 0.697,-0.2 1.195,-0.399 4.981,-1.693 6.973,-2.191 8.965,-1.892 h 0.1 c 2.39,0 4.383,0.697 8.168,2.191 4.184,1.693 5.479,2.192 7.57,2.39 2.89,0.2 5.38,-0.796 7.67,-3.286 3.885,-4.284 3.686,-8.866 0.2,-13.149 z m -1.694,11.754 c -1.892,2.092 -3.785,2.79 -6.076,2.69 -1.793,-0.1 -2.988,-0.598 -6.973,-2.192 -3.984,-1.693 -6.175,-2.29 -8.765,-2.39 -2.49,-0.3 -4.582,0.199 -9.862,1.992 -0.498,0.199 -0.896,0.299 -1.195,0.398 -7.272,2.49 -10.758,2.291 -13.149,-2.092 -3.586,-6.474 1.893,-15.24 9.364,-15.937 l 25.201,-0.997 c 4.782,1.993 9.065,4.881 11.555,7.97 2.988,3.585 3.088,7.171 -0.1,10.558 z"
         inkscape:connector-curvature="0"
         style="fill:#231f20" />
      <path
         id="path3889-5-4-1-5"
         d="m 140.178,78.719 c -3.088,-11.356 -28.987,-9.662 -28.39,3.885 1.295,10.06 31.378,7.37 28.39,-3.885 z"
         inkscape:connector-curvature="0" />
    </g>
  </g>
</svg>
