<?xml version="1.0" encoding="UTF-8" standalone="no"?>
<!-- Created with Inkscape (http://www.inkscape.org/) -->

<svg
   width="80.502556mm"
   height="106.04105mm"
   viewBox="0 0 80.502554 106.04105"
   version="1.1"
   id="svg5980"
   inkscape:version="1.1.2 (b8e25be8, 2022-02-05)"
   sodipodi:docname="logo_glouton.svg"
   inkscape:export-filename="/home/lionel/Bleemeo/Marketing/logo/squirreldb.png"
   inkscape:export-xdpi="49.975227"
   inkscape:export-ydpi="49.975227"
   xmlns:inkscape="http://www.inkscape.org/namespaces/inkscape"
   xmlns:sodipodi="http://sodipodi.sourceforge.net/DTD/sodipodi-0.dtd"
   xmlns="http://www.w3.org/2000/svg"
   xmlns:svg="http://www.w3.org/2000/svg"
   xmlns:rdf="http://www.w3.org/1999/02/22-rdf-syntax-ns#"
   xmlns:cc="http://creativecommons.org/ns#"
   xmlns:dc="http://purl.org/dc/elements/1.1/">
  <defs
     id="defs5974" />
  <sodipodi:namedview
     id="base"
     pagecolor="#ffffff"
     bordercolor="#666666"
     borderopacity="1.0"
     inkscape:pageopacity="0.0"
     inkscape:pageshadow="2"
     inkscape:zoom="0.95564732"
     inkscape:cx="117.72125"
     inkscape:cy="63.307874"
     inkscape:document-units="mm"
     inkscape:current-layer="layer1"
     showgrid="false"
     inkscape:window-width="1920"
     inkscape:window-height="1071"
     inkscape:window-x="0"
     inkscape:window-y="25"
     inkscape:window-maximized="0"
     inkscape:pagecheckerboard="0"
     fit-margin-top="5"
     fit-margin-left="5"
     fit-margin-right="5"
     fit-margin-bottom="5" />
  <metadata
     id="metadata5977">
    <rdf:RDF>
      <cc:Work
         rdf:about="">
        <dc:format>image/svg+xml</dc:format>
        <dc:type
           rdf:resource="http://purl.org/dc/dcmitype/StillImage" />
      </cc:Work>
    </rdf:RDF>
  </metadata>
  <g
     inkscape:label="Layer 1"
     inkscape:groupmode="layer"
     id="layer1"
     transform="translate(-18.827987,-112.88633)">
    <path
       id="path3855-2-1-1-7"
       d="m 24.734679,169.87777 c 0.137748,2.83793 2.975687,1.5155 4.243075,0.63369 1.212346,-0.85415 1.570546,-0.13774 1.680633,-1.79099 0.0827,-1.10199 0.192789,-2.17659 0.137747,-3.27857 -1.846041,-0.1654 -3.829828,0.2755 -5.345333,1.37748 -0.798827,0.55099 -2.231622,2.36965 -0.7164,3.05839 m 56.565602,34.88141 c 2.176582,1.35009 6.171816,5.42803 2.892983,7.41182 -3.141092,2.86559 -4.904147,-3.16875 -7.659658,-3.99524 1.184687,-1.62559 2.672529,-3.11343 4.766675,-3.41658 z m -38.959347,4.60126 c -2.562436,0.38586 -3.995235,2.70019 -6.144151,3.88515 -2.011448,1.18469 -2.782889,-0.38586 -2.948296,-0.7164 -0.30288,-0.13775 -0.275499,0.13775 -0.771445,-0.35819 -1.873422,-2.9483 1.928746,-5.09722 3.912533,-6.55768 2.75523,-0.55099 4.491179,1.84604 5.951359,3.74712 z m 51.054865,-39.84087 c -0.137747,2.83793 -2.975679,1.5155 -4.243073,0.63369 -1.212342,-0.85415 -1.570537,-0.13774 -1.680629,-1.79099 -0.08298,-1.10199 -0.193068,-2.17659 -0.137747,-3.27856 1.845762,-0.16541 3.829551,0.27549 5.345054,1.37747 0.771716,0.55099 2.231897,2.36965 0.716395,3.05839"
       inkscape:connector-curvature="0"
       style="fill:#f6d2a2;stroke-width:0.276602" />
    <path
       id="path3857-4-7-3-1"
       d="m 85.873615,134.91365 c 9.836235,-3.47163 2.149197,-16.94462 -6.419924,-10.99353 -5.620548,-4.82172 -13.362627,-5.70353 -21.490843,-5.70353 -7.96226,0.63425 -15.539486,2.09443 -20.829495,6.72308 -8.541733,-5.51073 -16.421569,7.71443 -6.392539,11.04858 -2.810274,10.91056 0.385582,22.04184 -0.05532,33.14546 -0.413241,9.97425 -3.030723,23.33688 2.507395,32.29159 4.711635,7.65965 14.850748,10.3875 23.199412,10.69065 10.662727,0.38558 23.584722,-2.2319 28.764643,-12.56408 4.959473,-9.83623 3.581993,-22.09715 2.948298,-32.70483 -0.633694,-10.71803 0.550994,-21.60121 -2.231897,-31.93366 z"
       inkscape:connector-curvature="0"
       style="fill:#69d7e2;stroke-width:0.276602" />
    <path
       id="path3859-8-2-7-5"
       d="m 94.139302,167.83893 c -0.275494,-0.57865 -0.798822,-1.24 -1.294769,-1.5982 -1.267389,-0.90919 -2.893258,-1.40513 -4.573887,-1.46018 -0.05504,-1.70829 -0.110087,-3.58199 -0.110087,-5.95136 v -2.1492 c -0.02764,-6.77785 -0.110361,-9.75352 -0.495947,-13.47327 -0.303155,-2.92036 -0.771716,-5.62054 -1.432796,-8.15532 2.231897,-0.85414 3.692079,-2.25928 4.270727,-4.07794 0.550994,-1.68063 0.275494,-3.58171 -0.661074,-5.26235 -0.964515,-1.65325 -2.507397,-2.89325 -4.298394,-3.38892 -1.928743,-0.52361 -4.022619,-0.13775 -6.034063,1.21207 -1.790997,-1.51522 -3.857212,-2.67253 -6.171811,-3.55433 -4.105326,-1.51495 -8.871727,-2.0936 -15.346693,-2.0936 v 0.2755 l -0.02765,-0.2755 c -6.915599,0.55099 -12.040475,1.62559 -16.283545,3.69208 -1.708294,0.82649 -3.223516,1.81838 -4.54595,2.97568 -2.039107,-1.26739 -4.160642,-1.57055 -6.11677,-0.96423 -1.818377,0.55098 -3.388923,1.84604 -4.325775,3.52667 -0.936853,1.68063 -1.157301,3.60937 -0.523607,5.26262 0.633698,1.65297 2.093879,2.94802 4.270734,3.74713 -0.68874,2.78261 -1.04694,5.7309 -1.101982,8.98208 -0.05532,3.16847 0.08243,5.70353 0.578375,11.43416 0.3582,4.27073 0.495947,6.22686 0.551267,8.5965 -1.873701,-0.0827 -3.747127,0.41325 -5.152541,1.4328 -0.495947,0.3582 -1.046935,0.9919 -1.294774,1.59793 -0.3582,0.77172 -0.220448,1.46046 0.495947,1.8737 0.110087,1.32243 0.854147,1.92847 1.983788,1.81838 0.826491,-0.0827 1.818385,-0.52361 2.672532,-1.12964 a 3.1001517,3.1001517 0 0 1 0.578648,-0.33054 c 0.08271,-0.0276 0.137747,-0.0553 0.220453,-0.083 0,0 0.165132,-0.0548 0.220452,-0.0824 0.08243,-0.0276 0.165129,-0.0553 0.220175,-0.11036 -0.05505,1.29505 -0.165133,2.64514 -0.413246,5.73119 -0.275494,3.47135 -0.413241,5.3727 -0.468283,7.49424 -0.248112,7.87983 0.688736,13.61074 3.49901,18.15696 0.881807,1.4328 1.956402,2.70019 3.223791,3.8575 -0.248109,0.16512 -1.295048,0.93684 -1.625588,1.18468 -1.157301,0.8818 -1.956124,1.62559 -2.424689,2.45207 -0.606034,1.0746 -0.606034,2.1492 0.0827,3.27884 l 0.02766,0.0276 0.02765,0.0276 c 0.302881,0.30288 0.468288,0.38559 0.688736,0.38559 h 0.08215 c 0.02765,0.0553 0.05532,0.0827 0.08298,0.13775 0.08243,0.13774 0.165133,0.24783 0.247835,0.3582 0.688739,0.7991 1.652973,0.99189 2.948021,0.22045 0.68874,-0.3582 1.184687,-0.77172 2.231623,-1.65325 l 0.05532,-0.0553 c 1.680634,-1.43252 2.507117,-1.95585 3.747123,-2.14892 l 0.440905,-0.0827 c 0.165129,0.083 0.330536,0.13802 0.523329,0.22045 3.91253,1.57054 8.458479,2.42469 13.060025,2.59009 5.951363,0.22046 11.682275,-0.5236 16.531376,-2.28693 1.295055,-0.46829 2.507397,-1.01956 3.664699,-1.62559 0.716396,0.27549 1.322155,0.85414 2.479732,2.20423 0.05505,0.0553 0.05505,0.0553 0.08243,0.1101 0.05532,0.0553 0.05532,0.083 0.08298,0.11036 0.05477,0.0827 0.137472,0.13774 0.192513,0.22045 0.909468,1.07432 1.515782,1.59792 2.204523,1.90108 0.908908,0.38558 1.790716,0.19279 2.69991,-0.6337 1.598198,-0.99189 1.708284,-2.53477 0.661074,-4.29838 -0.743781,-1.23973 -2.038555,-2.53478 -3.250898,-3.36127 1.432796,-1.40513 2.672525,-3.08576 3.636759,-4.98713 2.645139,-5.29 3.664694,-11.46182 3.609653,-19.39696 -0.02764,-2.81028 -0.138027,-5.26235 -0.440907,-9.9466 v -0.13747 c 0.137747,0.055 0.275494,0.13775 0.413247,0.24783 0.854142,0.57866 1.846037,1.04694 2.672524,1.12964 1.129636,0.11037 1.873697,-0.49594 1.983784,-1.81838 0.68874,-0.4409 0.826487,-1.12964 0.468287,-1.90108 z m -8.761354,-44.93837 c 1.653244,0.44091 3.08604,1.59821 3.967573,3.14109 0.881803,1.54289 1.129642,3.27884 0.633695,4.82173 -0.523333,1.62558 -1.846043,2.92063 -3.912533,3.69207 a 44.820538,44.820538 0 0 0 -1.460176,-4.35343 c 0.799102,-0.68874 1.184682,-1.54289 0.550988,-2.75495 -0.63342,-1.21262 -1.735676,-1.35037 -2.865598,-0.99218 -0.716395,-0.93684 -1.515222,-1.76333 -2.341709,-2.53477 1.818382,-1.1573 3.692085,-1.48784 5.42776,-1.01956 z m -58.741908,9.31291 c -0.578653,-1.48812 -0.38586,-3.25118 0.495951,-4.79406 0.881528,-1.54316 2.314328,-2.75523 4.022617,-3.25118 1.763335,-0.52361 3.664421,-0.27577 5.538118,0.82649 a 18.128751,18.128751 0 0 0 -2.86559,3.27883 c -1.4328,-0.74406 -2.892981,-0.8818 -3.719463,0.63342 -0.854147,1.62587 0.137747,2.64514 1.542882,3.41659 -0.192789,0.46856 -0.38586,0.9645 -0.550989,1.46045 -0.193071,0.60603 -0.385859,1.23973 -0.550992,1.87342 -2.011448,-0.77144 -3.333881,-1.95612 -3.912534,-3.44396 z m 3.333885,37.55421 c -0.02765,0 -0.193071,0.055 -0.193071,0.0824 -0.08243,0.0276 -0.165128,0.0553 -0.247834,0.11036 -0.220453,0.0827 -0.440901,0.22045 -0.661075,0.38558 -0.77172,0.55127 -1.708572,0.96451 -2.424972,1.01956 -0.826487,0.0827 -1.294774,-0.27549 -1.377479,-1.26739 0.578652,-0.19279 0.826486,-0.33054 1.046939,-0.66108 l -0.440905,-0.33081 c -0.165129,0.22044 -0.330536,0.30315 -0.826483,0.46828 -0.02765,0 -0.02765,0 -0.05532,0.0276 -0.440627,-0.24811 -0.523333,-0.63369 -0.27522,-1.18469 0.220453,-0.49594 0.7164,-1.07459 1.129641,-1.37747 1.322438,-0.96451 3.085773,-1.4328 4.849108,-1.32271 0,0.68874 0.02765,1.37748 0,2.03856 0,0.083 0,0.13802 -0.02765,0.22072 -0.02736,0.38558 -0.02736,0.55099 -0.05504,0.74406 -0.08243,0.79883 -0.137748,0.90891 -0.440624,1.04694 z m 8.320729,41.57655 -0.05532,0.0553 c -1.019276,0.88153 -1.515222,1.23973 -2.148917,1.59793 -1.046939,0.63369 -1.763335,0.49594 -2.259281,-0.11009 -0.08271,-0.083 -0.137747,-0.19307 -0.192793,-0.27577 -0.02766,-0.0276 -0.05532,-0.0824 -0.08271,-0.11009 v -0.0276 c 0.05532,-0.49595 0.248112,-0.85414 0.74406,-1.62559 0.02766,-0.0276 0.02766,-0.0276 0.02766,-0.055 0.30288,-0.44091 0.440627,-0.68874 0.578374,-0.99189 l -0.495947,-0.22046 c -0.110087,0.24812 -0.247834,0.46857 -0.523607,0.90919 -0.02765,0.0276 -0.02765,0.0276 -0.02765,0.0553 -0.495668,0.71639 -0.716399,1.15702 -0.826487,1.65297 h -0.02766 -0.0827 c -0.05532,-0.0276 -0.137747,-0.0827 -0.247834,-0.1928 -1.0746,-1.70829 -0.220453,-3.16847 2.203962,-4.98712 0.303154,-0.22018 1.322707,-0.93657 1.598202,-1.15703 0.05532,0 0.110087,-0.0276 0.165407,-0.0553 1.487566,1.26767 3.223516,2.36965 5.152262,3.27884 0,0.0276 0.02766,0.0553 0.05504,0.083 -1.129641,0.27522 -2.011447,0.85387 -3.55433,2.1763 z m 46.260807,-3.00306 c 0.854148,1.43279 0.826487,2.58982 -0.248114,3.38892 -0.08243,-0.16541 -0.137747,-0.3582 -0.247833,-0.6337 0,-0.0276 0,-0.0276 -0.02764,-0.0553 -0.385586,-1.04693 -0.63342,-1.48756 -1.101982,-1.98351 l -0.38586,0.38559 c 0.413241,0.38586 0.606314,0.7991 0.991894,1.76333 0,0.0276 0,0.0276 0.02764,0.0553 0.137747,0.35793 0.220454,0.57838 0.303155,0.77145 -0.716396,0.60603 -1.35009,0.71639 -2.01145,0.41324 -0.578649,-0.24811 -1.129642,-0.77172 -2.011445,-1.76334 -0.05505,-0.0553 -0.110092,-0.13774 -0.165132,-0.22045 -0.02764,-0.0276 -0.05532,-0.0553 -0.08298,-0.11036 -0.05477,-0.055 -0.05477,-0.055 -0.08243,-0.11009 -1.01955,-1.18469 -1.625584,-1.81838 -2.286939,-2.17685 1.543158,-0.88153 2.920908,-1.87343 4.160641,-3.03073 1.157022,0.85415 2.452071,2.12154 3.168472,3.3065 z m 0.38558,-8.92705 c -2.369369,4.76668 -6.557391,8.12795 -12.178219,10.16678 -4.79406,1.73595 -10.469925,2.45235 -16.338586,2.2319 -10.111726,-0.35821 -18.873363,-3.88488 -22.978686,-10.55264 -2.755229,-4.43614 -3.664696,-10.08434 -3.416583,-17.85408 0.08271,-2.12154 0.192793,-4.02262 0.468287,-7.49425 0.303154,-3.91253 0.38586,-5.04217 0.468565,-6.8055 0.05504,-1.2674 0.05504,-2.56245 0.02766,-3.93992 -0.05532,-2.42469 -0.19307,-4.35344 -0.551265,-8.6792 -0.495947,-5.73092 -0.633699,-8.23832 -0.578653,-11.3794 0.08298,-4.13243 0.633694,-7.76974 1.790995,-11.21343 1.87287,-5.59372 5.317391,-9.36851 10.27686,-11.8203 4.160364,-2.03856 9.202539,-3.08577 16.063093,-3.63704 6.419924,0 11.103619,0.57865 15.153899,2.0665 4.849101,1.79099 8.458479,4.9318 10.938211,9.7538 1.598203,3.91225 2.535057,8.12794 3.031004,12.97704 0.385581,3.69209 0.468287,6.66776 0.495948,13.41795 v 2.1492 c 0.02764,3.33388 0.08243,5.67587 0.220453,8.01785 0.05504,0.90919 0.08243,1.29505 0.220173,3.47163 0.303155,4.68397 0.413521,7.10866 0.440902,9.91893 0.05532,7.9075 -0.936849,13.99661 -3.554333,19.20418 z m 8.4311,-30.17005 c -0.02764,0 -0.05505,-0.0276 -0.08243,-0.0276 -0.495947,-0.16513 -0.661349,-0.27549 -0.826757,-0.46828 l -0.440906,0.33054 c 0.248113,0.33081 0.495947,0.46856 1.047215,0.66107 -0.110361,0.99217 -0.578648,1.35037 -1.377475,1.26767 -0.716401,-0.0553 -1.65353,-0.49595 -2.424971,-1.01955 -0.220453,-0.16514 -0.440626,-0.2755 -0.66108,-0.38558 -0.02764,0 -0.05532,-0.0276 -0.08298,-0.0276 -0.110087,-1.51523 -0.110087,-1.90109 -0.165127,-2.70019 l -0.08271,-1.48784 c 1.543163,0.0276 3.058385,0.49595 4.215413,1.3501 0.413521,0.30315 0.909468,0.8818 1.129916,1.37747 0.275494,0.46857 0.220448,0.88181 -0.248108,1.12992 z"
       inkscape:connector-curvature="0"
       style="stroke-width:0.276602" />
    <circle
       r="15.580399"
       cy="171.14708"
       cx="58.407219"
       id="path838-3-3-8-2"
       style="fill:#800080;fill-opacity:1;stroke:#000000;stroke-width:1.41525;stroke-linecap:round;stroke-linejoin:bevel;stroke-miterlimit:4;stroke-dasharray:none;stroke-dashoffset:0;stroke-opacity:1" />
    <text
       id="text836-9-6-8-1"
       y="179.87625"
       x="49.689976"
       style="font-style:normal;font-weight:normal;font-size:24.4392px;line-height:1.25;font-family:sans-serif;letter-spacing:0px;word-spacing:0px;fill:#ffffff;fill-opacity:1;stroke:none;stroke-width:0.610985"
       xml:space="preserve"><tspan
         style="font-style:normal;font-variant:normal;font-weight:normal;font-stretch:normal;font-family:Ubuntu;-inkscape-font-specification:Ubuntu;fill:#ffffff;fill-opacity:1;stroke-width:0.610985"
         y="179.87625"
         x="49.689976"
         id="tspan834-0-5-3-1"
         sodipodi:role="line">G</tspan></text>
    <path
       style="fill:#800080;fill-opacity:1;stroke:none;stroke-width:0.415251;stroke-miterlimit:4;stroke-dasharray:none;stroke-opacity:1"
       d="m 29.9885,188.26297 c 19.461805,3.46497 39.066368,4.87745 58.528174,0 -0.42713,2.88458 -2.660402,9.34783 -2.660402,9.34783 -9.868976,2.80333 -18.648696,7.94426 -17.983247,13.40954 -6.648493,1.11054 -11.235934,1.0162 -15.40435,0.52279 -3.427371,-10.80099 -14.38656,-13.156 -19.731335,-11.57783 -0.303709,0.0897 -2.967721,-6.6754 -2.74884,-11.70233 z"
       id="rect3927-5-5-8-0"
       inkscape:connector-curvature="0"
       sodipodi:nodetypes="ccsccsc" />
    <path
       style="fill:#800080;fill-opacity:1;stroke:none;stroke-width:0.415251;stroke-miterlimit:4;stroke-dasharray:none;stroke-opacity:1"
       d="m 41.244746,122.42856 c 19.461808,3.46496 15.340635,4.19684 34.802445,-0.68061 4.19523,2.02333 9.807702,8.58931 10.336035,16.02885 -14.441937,1.50299 -41.356675,10.26001 -55.642412,-1.78855 2.849768,-8.59716 5.883707,-10.94238 10.503932,-13.55969 z"
       id="rect3927-7-2-8-1-1"
       inkscape:connector-curvature="0"
       sodipodi:nodetypes="ccccc" />
    <path
       style="fill:#000000;fill-opacity:1;stroke:none;stroke-width:0.621551;stroke-miterlimit:4;stroke-dasharray:none;stroke-opacity:1"
       d="m 29.988496,188.26297 c 19.509392,3.03408 39.018783,4.16096 58.528178,0 l -0.33562,2.64411 c -19.509396,4.702 -38.683166,3.15905 -58.192558,-0.0746 z"
       id="rect3930-2-1-5-8"
       inkscape:connector-curvature="0"
       sodipodi:nodetypes="ccccc" />
    <path
       id="path3861-7-4-3-7"
       d="m 62.140084,146.63161 c 0.02765,1.40513 0.303158,2.94802 0.05504,4.43586 -0.385859,0.7164 -1.101981,0.79938 -1.735675,1.0746 -0.881806,-0.13775 -1.625866,-0.7164 -1.983787,-1.54289 -0.220453,-1.68063 0.05504,-3.27884 0.137747,-4.95947 0,-0.0553 1.046935,0.0277 1.983787,0.30316 0.798823,0.24783 1.542883,0.66108 1.542883,0.68874 z m -7.797402,0.11009 c -0.771719,2.92091 1.019554,7.68731 3.967578,3.77478 -0.220453,-1.65325 0.02766,-3.25118 0.110087,-4.87677 0.02766,-0.13774 -4.050005,0.90919 -4.077665,1.10199 z"
       inkscape:connector-curvature="0"
       style="fill:#ffffff;stroke-width:0.276602" />
    <path
       id="path3863-3-7-5-6"
       d="m 62.470624,147.92666 c -0.05532,-0.82676 -0.08271,-1.1573 -0.08271,-1.57055 v -0.19279 l -0.192789,-0.0553 -3.471628,-1.07432 v -0.19307 l -0.3582,0.083 h -0.02766 v 0.0274 l -3.912258,0.99189 -0.137747,0.0277 -0.05532,0.13746 c -0.606034,1.46046 -0.468287,3.6647 0.303154,5.0148 0.881807,1.54288 2.314326,1.57027 3.774789,-0.19307 a 2.8191244,2.8191244 0 0 0 2.066211,1.48812 h 0.08298 l 0.08243,-0.0277 c 0.110362,-0.0553 0.220449,-0.083 0.41352,-0.16541 0.02765,0 0.02765,0 0.05504,-0.0276 0.798827,-0.2755 1.12964,-0.49595 1.405139,-1.01928 l 0.02765,-0.0277 v -0.055 c 0.08243,-0.49595 0.110087,-1.01956 0.110087,-1.59793 0,-0.41352 -0.02765,-0.79938 -0.0827,-1.57054 z m -4.408477,-1.01956 c -0.02766,0.49595 -0.05505,0.68874 -0.08243,0.96424 -0.05532,1.01955 -0.05532,1.79099 0.02766,2.56243 -1.295331,1.65325 -2.314606,1.65325 -3.003344,0.41325 -0.661354,-1.15703 -0.799379,-3.11343 -0.303154,-4.4082 l 3.471352,-0.88181 c -0.02741,0.3582 -0.05477,0.7164 -0.110087,1.35009 z m 3.857488,4.07794 c -0.192793,0.33054 -0.440905,0.49595 -1.102259,0.7164 -0.02766,0 -0.02766,0 -0.05505,0.0274 -0.165129,0.0553 -0.275494,0.11008 -0.358195,0.13774 -0.74406,-0.13774 -1.37748,-0.63369 -1.680634,-1.32243 -0.08271,-0.74406 -0.08271,-1.5155 -0.02765,-2.53478 0.02765,-0.27577 0.02765,-0.46856 0.08298,-0.96451 0.05477,-0.63341 0.08243,-1.01928 0.08243,-1.37747 l 3.003341,0.90918 c 0,0.3582 0.02766,0.68874 0.08271,1.40514 0.05504,0.74406 0.08243,1.12964 0.08243,1.57055 0,0.52332 -0.02766,0.99189 -0.110087,1.43279 z"
       inkscape:connector-curvature="0"
       style="stroke-width:0.276602" />
    <g
       id="g3873-7-1-4-0"
       transform="matrix(0.27660169,0,0,0.27660169,37.123674,123.90961)">
      <path
         id="path3865-9-3-3-0"
         d="m 2.291,38.749 c 9.164,35.66 66.241,26.496 64.05,-9.264 C 63.75,-13.348 -6.475,-5.08 2.29,38.749"
         inkscape:connector-curvature="0"
         style="fill:#ffffff" />
      <path
         id="path3867-0-8-6-9"
         d="M 67.337,29.385 C 66.739,19.025 62.157,10.957 54.587,5.877 47.813,1.295 38.848,-0.498 29.983,0.597 21.118,1.794 12.949,5.778 7.57,12.054 1.594,19.026 -0.697,28.19 1.395,38.749 l 0.896,-0.2 -0.896,0.2 C 10.758,75.405 69.528,66.54 67.337,29.385 Z M 3.187,38.55 C 1.195,28.49 3.387,19.923 8.965,13.448 14.045,7.571 21.715,3.687 30.182,2.591 c 8.467,-1.096 16.934,0.598 23.31,4.98 7.071,4.782 11.355,12.253 11.952,22.114 2.092,34.764 -53.391,43.132 -62.256,8.865 z"
         inkscape:connector-curvature="0" />
      <ellipse
         id="ellipse3869-2-4-5-5"
         ry="10.459"
         rx="9.6619997"
         cy="32.872002"
         cx="18.030001" />
      <ellipse
         id="ellipse3871-3-8-9-6"
         ry="2.6889999"
         rx="2.2909999"
         cy="35.262001"
         cx="22.412001"
         style="fill:#ffffff" />
    </g>
    <g
       id="g3883-9-0-5-2"
       transform="matrix(0.27660169,0,0,0.27660169,59.56769,122.83695)">
      <path
         id="path3875-9-4-4-8"
         d="M 1.195,35.96 C 8.268,76.9 75.206,66.042 65.544,24.803 56.878,-12.252 -1.196,-1.992 1.195,35.96"
         inkscape:connector-curvature="0"
         style="fill:#ffffff" />
      <path
         id="path3877-7-6-9-5"
         d="M 66.44,24.604 C 57.575,-13.547 -2.19,-3.088 0.2,36.059 v 0.1 C 3.486,55.483 20.72,65.345 39.745,62.157 48.41,60.663 56.18,56.48 61.26,50.304 66.838,43.43 68.83,34.565 66.44,24.604 Z M 59.767,49.108 C 54.985,54.886 47.714,58.87 39.446,60.265 21.416,63.253 5.279,53.989 2.092,35.86 -0.1,-0.996 56.28,-10.858 64.647,25.002 c 2.192,9.463 0.399,17.731 -4.88,24.106 z"
         inkscape:connector-curvature="0" />
      <ellipse
         id="ellipse3879-0-0-1-9"
         ry="10.459"
         rx="9.4630003"
         cy="34.167"
         cx="17.631001" />
      <ellipse
         id="ellipse3881-3-3-7-4"
         ry="2.6889999"
         rx="2.191"
         cy="36.556999"
         cx="22.014"
         style="fill:#ffffff" />
    </g>
    <g
       id="g3891-9-2-5-3"
       transform="matrix(0.27660169,0,0,0.27660169,23.715126,117.83101)">
      <path
         id="path3885-8-6-5-9"
         d="m 112.785,83.002 c -7.87,0.697 -14.245,9.961 -10.16,17.332 5.378,9.762 17.431,-0.896 24.902,0.1 8.666,0.2 15.739,9.164 22.612,1.594 7.67,-8.368 -3.287,-16.536 -11.954,-20.122 z"
         inkscape:connector-curvature="0"
         style="fill:#f6d2a2" />
      <path
         id="path3887-6-9-4-0"
         d="m 151.135,89.676 c -2.69,-3.387 -7.371,-6.475 -12.452,-8.567 l -0.199,-0.1 h -0.199 l -25.5,0.997 c -8.866,0.797 -15.24,11.057 -10.958,18.826 1.694,2.989 3.985,4.483 7.073,4.682 2.29,0.1 4.682,-0.398 8.367,-1.693 0.299,-0.1 0.697,-0.2 1.195,-0.399 4.981,-1.693 6.973,-2.191 8.965,-1.892 h 0.1 c 2.39,0 4.383,0.697 8.168,2.191 4.184,1.693 5.479,2.192 7.57,2.39 2.89,0.2 5.38,-0.796 7.67,-3.286 3.885,-4.284 3.686,-8.866 0.2,-13.149 z m -1.694,11.754 c -1.892,2.092 -3.785,2.79 -6.076,2.69 -1.793,-0.1 -2.988,-0.598 -6.973,-2.192 -3.984,-1.693 -6.175,-2.29 -8.765,-2.39 -2.49,-0.3 -4.582,0.199 -9.862,1.992 -0.498,0.199 -0.896,0.299 -1.195,0.398 -7.272,2.49 -10.758,2.291 -13.149,-2.092 -3.586,-6.474 1.893,-15.24 9.364,-15.937 l 25.201,-0.997 c 4.782,1.993 9.065,4.881 11.555,7.97 2.988,3.585 3.088,7.171 -0.1,10.558 z"
         inkscape:connector-curvature="0"
         style="fill:#231f20" />
      <path
         id="path3889-5-4-1-5"
         d="m 140.178,78.719 c -3.088,-11.356 -28.987,-9.662 -28.39,3.885 1.295,10.06 31.378,7.37 28.39,-3.885 z"
         inkscape:connector-curvature="0" />
    </g>
  </g>
</svg>
