<?xml version="1.0" encoding="UTF-8" standalone="no"?>
<!-- Created with Inkscape (http://www.inkscape.org/) -->

<svg
   width="140.85867mm"
   height="188.26039mm"
   viewBox="0 0 140.85867 188.26039"
   version="1.1"
   id="svg5980"
   inkscape:version="1.1.2 (b8e25be8, 2022-02-05)"
   sodipodi:docname="logo_glouton_v2.svg"
   inkscape:export-filename="/home/lionel/Bleemeo/Marketing/logo/squirreldb.png"
   inkscape:export-xdpi="49.975227"
   inkscape:export-ydpi="49.975227"
   xmlns:inkscape="http://www.inkscape.org/namespaces/inkscape"
   xmlns:sodipodi="http://sodipodi.sourceforge.net/DTD/sodipodi-0.dtd"
   xmlns="http://www.w3.org/2000/svg"
   xmlns:svg="http://www.w3.org/2000/svg"
   xmlns:rdf="http://www.w3.org/1999/02/22-rdf-syntax-ns#"
   xmlns:cc="http://creativecommons.org/ns#"
   xmlns:dc="http://purl.org/dc/elements/1.1/">
  <defs
     id="defs5974" />
  <sodipodi:namedview
     id="base"
     pagecolor="#ffffff"
     bordercolor="#666666"
     borderopacity="1.0"
     inkscape:pageopacity="0.0"
     inkscape:pageshadow="2"
     inkscape:zoom="0.95564732"
     inkscape:cx="117.72125"
     inkscape:cy="374.09198"
     inkscape:document-units="mm"
     inkscape:current-layer="layer1"
     showgrid="false"
     inkscape:window-width="1920"
     inkscape:window-height="1073"
     inkscape:window-x="0"
     inkscape:window-y="25"
     inkscape:window-maximized="0"
     inkscape:pagecheckerboard="0"
     fit-margin-top="5"
     fit-margin-left="5"
     fit-margin-right="5"
     fit-margin-bottom="5" />
  <metadata
     id="metadata5977">
    <rdf:RDF>
      <cc:Work
         rdf:about="">
        <dc:format>image/svg+xml</dc:format>
        <dc:type
           rdf:resource="http://purl.org/dc/dcmitype/StillImage" />
      </cc:Work>
    </rdf:RDF>
  </metadata>
  <g
     inkscape:label="Layer 1"
     inkscape:groupmode="layer"
     id="layer1"
     transform="translate(-18.827982,-30.66705)">
    <path
       id="path3855-2-1-1-7"
       d="m 25.510889,132.16754 c 0.255671,5.26744 5.523124,2.8129 7.875503,1.17619 2.250217,-1.58537 2.915066,-0.25567 3.119397,-3.32424 0.153501,-2.04537 0.357832,-4.03992 0.25567,-6.08529 -3.426407,-0.307 -7.108484,0.51134 -9.921388,2.55671 -1.48269,1.02269 -4.142078,4.39827 -1.329698,5.67663 m 104.990517,64.74283 c 4.03992,2.50588 11.45541,10.07488 5.36962,13.75696 -5.83013,5.31878 -9.10251,-5.88146 -14.21697,-7.41549 2.19888,-3.01723 4.96044,-5.77879 8.84735,-6.34147 z m -72.311826,8.54034 c -4.756097,0.71618 -7.415493,5.01177 -11.404062,7.21116 -3.733417,2.19888 -5.165276,-0.71619 -5.472286,-1.3297 -0.56217,-0.25567 -0.511348,0.25568 -1.431867,-0.66484 -3.477229,-5.47229 3.579915,-9.46086 7.261992,-12.1716 5.113937,-1.02268 8.336005,3.42641 11.046223,6.95498 z m 94.762126,-73.94802 c -0.25567,5.26744 -5.52311,2.8129 -7.8755,1.17619 -2.25021,-1.58537 -2.91505,-0.25567 -3.11939,-3.32424 -0.15401,-2.04537 -0.35835,-4.03992 -0.25567,-6.08528 3.42589,-0.30701 7.10797,0.51134 9.92087,2.55671 1.43237,1.02268 4.14259,4.39826 1.32969,5.67662"
       inkscape:connector-curvature="0"
       style="fill:#f6d2a2;stroke-width:0.513396" />
    <path
       id="path3857-4-7-3-1"
       d="m 138.9899,67.271197 c 18.25688,-6.443634 3.98909,-31.450638 -11.91592,-20.404924 -10.43221,-8.949522 -24.80216,-10.586222 -39.888814,-10.586222 -14.778625,1.177215 -28.842593,3.887434 -38.661295,12.4786 -15.854176,-10.22839 -30.479814,14.31862 -11.86509,20.507093 -5.216106,20.250907 0.715672,40.911506 -0.102686,61.520756 -0.76701,18.51306 -5.625277,43.31522 4.653936,59.93591 8.745191,14.21696 27.564238,19.28007 43.060061,19.84275 19.790918,0.71567 43.775228,-4.14259 53.389598,-23.31998 9.2052,-18.25688 6.64848,-41.01418 5.47229,-60.70293 -1.17619,-19.89357 1.02269,-40.093657 -4.14259,-59.271561 z"
       inkscape:connector-curvature="0"
       style="fill:#69d7e2;stroke-width:0.513396" />
    <path
       id="path3859-8-2-7-5"
       d="m 154.33171,128.38329 c -0.51134,-1.07402 -1.48268,-2.30155 -2.4032,-2.9664 -2.35238,-1.68753 -5.37013,-2.60804 -8.48952,-2.71021 -0.10216,-3.17074 -0.20433,-6.64848 -0.20433,-11.04624 v -3.98908 c -0.0513,-12.580262 -0.20484,-18.103369 -0.92052,-25.007522 -0.56268,-5.420437 -1.43237,-10.432205 -2.65939,-15.13697 4.14259,-1.585361 6.85281,-4.193418 7.92683,-7.568994 1.02269,-3.119398 0.51134,-6.647966 -1.22701,-9.767364 -1.79022,-3.068567 -4.65394,-5.370123 -7.97818,-6.290126 -3.57991,-0.971858 -7.46632,-0.25567 -11.19973,2.249701 -3.32424,-2.81238 -7.15931,-4.960428 -11.4554,-6.597136 C 108.10143,36.741078 99.254587,35.66705 87.236506,35.66705 v 0.511348 l -0.05133,-0.511348 c -12.835934,1.022689 -22.348136,3.017228 -30.22363,6.852813 -3.170737,1.53403 -5.983117,3.375068 -8.437666,5.523116 -3.784755,-2.352379 -7.722502,-2.915066 -11.35324,-1.789699 -3.37506,1.022681 -6.290126,3.426406 -8.029003,6.545804 -1.738877,3.119389 -2.148048,6.699297 -0.971858,9.767872 1.176197,3.06805 3.886416,5.471769 7.926841,6.954975 -1.278359,5.164759 -1.943208,10.637045 -2.04537,16.671508 -0.102678,5.880948 0.152992,10.586222 1.073512,21.222761 0.664849,7.92684 0.920519,11.55758 1.023197,15.95583 -3.477746,-0.1535 -6.954983,0.76702 -9.563549,2.6594 -0.920519,0.66485 -1.9432,1.84104 -2.403209,2.96589 -0.664849,1.43237 -0.409171,2.71073 0.920519,3.47774 0.204331,2.45454 1.585369,3.5794 3.682077,3.37506 1.534037,-0.1535 3.375076,-0.97185 4.960444,-2.0967 a 5.7541424,5.7541424 0 0 1 1.07402,-0.61351 c 0.153508,-0.0513 0.25567,-0.10268 0.409179,-0.15402 0,0 0.3065,-0.10165 0.409178,-0.15299 0.152993,-0.0513 0.306493,-0.10268 0.408663,-0.20484 -0.10217,2.40371 -0.306501,4.9096 -0.767019,10.63756 -0.51134,6.44312 -0.76701,9.9722 -0.869172,13.90995 -0.460518,14.62563 1.278351,25.26268 6.494457,33.70085 1.636708,2.65939 3.631247,5.01178 5.983626,7.15983 -0.46051,0.30649 -2.403718,1.73887 -3.017228,2.19887 -2.148048,1.6367 -3.63073,3.01723 -4.500427,4.55125 -1.12485,1.99455 -1.12485,3.98909 0.153509,6.0858 l 0.05133,0.0513 0.05133,0.0513 c 0.562171,0.56217 0.869181,0.71568 1.278352,0.71568 h 0.152483 c 0.05133,0.10268 0.102678,0.1535 0.154017,0.25567 0.152992,0.25567 0.306501,0.46 0.460002,0.66485 1.278359,1.4832 3.068058,1.84104 5.471776,0.40917 1.278359,-0.66484 2.198878,-1.43237 4.142079,-3.06857 l 0.102678,-0.10267 c 3.119397,-2.65888 4.653419,-3.63022 6.954975,-3.98857 l 0.818357,-0.15351 c 0.306493,0.15402 0.613503,0.25618 0.971342,0.40918 7.261985,2.91506 15.69965,4.50042 24.240506,4.80743 11.046231,0.40918 21.683286,-0.97186 30.683626,-4.24475 2.40373,-0.86918 4.65394,-1.89238 6.80199,-3.01723 1.32969,0.51134 2.45403,1.58537 4.60259,4.09125 0.10217,0.10268 0.10217,0.10268 0.15299,0.20434 0.10268,0.10267 0.10268,0.15401 0.15402,0.20484 0.10165,0.1535 0.25516,0.25567 0.35732,0.40917 1.68805,1.99403 2.81342,2.96589 4.09178,3.52857 1.68701,0.71568 3.32372,0.35784 5.01126,-1.17619 2.96639,-1.84104 3.17072,-4.70475 1.22701,-7.97817 -1.38052,-2.30104 -3.78373,-4.70476 -6.03394,-6.23879 2.65939,-2.60805 4.96043,-5.72744 6.75013,-9.25653 4.9096,-9.81869 6.80198,-21.2741 6.69982,-36.0024 -0.0513,-5.21611 -0.25619,-9.76737 -0.81836,-18.46173 v -0.25515 c 0.25567,0.10216 0.51134,0.25567 0.76702,0.46 1.58536,1.07403 3.4264,1.9432 4.96043,2.09671 2.0967,0.20485 3.47774,-0.92052 3.68207,-3.37507 1.27836,-0.81835 1.53403,-2.09671 0.86918,-3.52857 z M 138.0699,44.973896 c 3.06856,0.818349 5.72795,2.966405 7.36415,5.830124 1.6367,2.863728 2.09671,6.085795 1.17619,8.949523 -0.97135,3.017228 -3.42641,5.420946 -7.26199,6.852805 a 83.190691,83.190691 0 0 0 -2.71021,-8.080334 c 1.4832,-1.278359 2.19887,-2.863727 1.02268,-5.113428 -1.17568,-2.250726 -3.22156,-2.506396 -5.31879,-1.841555 -1.32969,-1.738869 -2.81238,-3.272898 -4.34641,-4.704758 3.37507,-2.148048 6.85282,-2.761558 10.07438,-1.892377 z M 29.039974,62.25943 c -1.074028,-2.762074 -0.716188,-6.034456 0.920527,-8.898183 1.636191,-2.864236 4.295587,-5.113937 7.466316,-6.034456 3.272898,-0.971858 6.801474,-0.511857 10.279212,1.534029 a 33.648487,33.648487 0 0 0 -5.318776,6.085795 c -2.659396,-1.381037 -5.369615,-1.636707 -6.903636,1.175673 -1.585369,3.017745 0.25567,4.909606 2.863719,6.341473 -0.357832,0.869689 -0.716188,1.790208 -1.022681,2.710728 -0.358356,1.12485 -0.716188,2.30104 -1.022689,3.477229 -3.733416,-1.43186 -6.187964,-3.63073 -7.261992,-6.392288 z m 6.187972,69.70378 c -0.05133,0 -0.358356,0.10216 -0.358356,0.15299 -0.152992,0.0513 -0.306493,0.10268 -0.460001,0.20484 -0.409179,0.15351 -0.81835,0.40918 -1.227012,0.71568 -1.432376,1.0232 -3.171253,1.79021 -4.500951,1.89238 -1.534029,0.1535 -2.40321,-0.51134 -2.556718,-2.35238 1.074028,-0.35784 1.534029,-0.61351 1.943208,-1.22702 l -0.818358,-0.61402 c -0.306493,0.40917 -0.613502,0.56268 -1.534021,0.86918 -0.05133,0 -0.05133,0 -0.102678,0.0513 -0.817841,-0.46052 -0.97135,-1.17619 -0.510832,-2.19888 0.409179,-0.92052 1.329698,-1.99454 2.096709,-2.55671 2.454556,-1.79021 5.727454,-2.65939 9.000352,-2.45506 0,1.27836 0.05133,2.55671 0,3.78373 0,0.15401 0,0.25618 -0.05133,0.40969 -0.05079,0.71567 -0.05079,1.02268 -0.102169,1.38103 -0.152993,1.48269 -0.255671,1.68702 -0.817834,1.94321 z m 15.443972,77.16957 -0.102678,0.10268 c -1.891861,1.6362 -2.81238,2.30105 -3.98857,2.96589 -1.943208,1.17619 -3.272898,0.92052 -4.193417,-0.20433 -0.153509,-0.15402 -0.25567,-0.35835 -0.35784,-0.51186 -0.05133,-0.0513 -0.102678,-0.15299 -0.153508,-0.20433 v -0.0513 c 0.102685,-0.92052 0.460517,-1.58536 1.381037,-3.01723 0.05133,-0.0513 0.05133,-0.0513 0.05133,-0.10216 0.562171,-0.81836 0.817841,-1.27836 1.073511,-1.84104 l -0.920519,-0.40918 c -0.204331,0.46052 -0.460001,0.8697 -0.971858,1.68753 -0.05133,0.0513 -0.05133,0.0513 -0.05133,0.10269 -0.920003,1.32969 -1.329698,2.14753 -1.53403,3.06805 h -0.05133 -0.153501 c -0.102678,-0.0513 -0.25567,-0.1535 -0.460001,-0.35784 -1.994547,-3.17073 -0.409179,-5.88095 4.090739,-9.25652 0.56268,-0.40867 2.455057,-1.73836 2.966398,-2.14754 0.102678,0 0.204331,-0.0513 0.307009,-0.10268 2.761049,2.35289 5.983117,4.39826 9.563032,6.08579 0,0.0513 0.05133,0.10268 0.102162,0.15402 -2.096709,0.51083 -3.733416,1.58486 -6.597136,4.0394 z m 85.863952,-5.57393 c 1.58537,2.65938 1.53403,4.80692 -0.46052,6.29012 -0.15299,-0.30701 -0.25567,-0.66485 -0.46,-1.17619 0,-0.0513 0,-0.0513 -0.0513,-0.10268 -0.71568,-1.9432 -1.17568,-2.76104 -2.04537,-3.68156 l -0.71619,0.71568 c 0.76701,0.71618 1.12537,1.48319 1.84104,3.27289 0,0.0513 0,0.0513 0.0513,0.10268 0.25567,0.66434 0.40918,1.07351 0.56268,1.43187 -1.32969,1.12485 -2.50588,1.32969 -3.73342,0.76701 -1.07402,-0.46052 -2.09671,-1.43238 -3.73341,-3.2729 -0.10217,-0.10268 -0.20434,-0.25567 -0.3065,-0.40918 -0.0513,-0.0513 -0.10267,-0.10268 -0.15401,-0.20484 -0.10166,-0.10217 -0.10166,-0.10217 -0.153,-0.20434 -1.89237,-2.19887 -3.01722,-3.37506 -4.24475,-4.04042 2.86423,-1.63619 5.42145,-3.47723 7.7225,-5.62528 2.14753,1.58537 4.55125,3.93775 5.88095,6.13714 z m 0.71567,-16.56935 c -4.39775,8.84736 -12.17107,15.08615 -22.6038,18.87039 -8.89818,3.22207 -19.433062,4.55177 -30.325792,4.14259 -18.768213,-0.66485 -35.03055,-7.21065 -42.650375,-19.58657 -5.113936,-8.23385 -6.801983,-18.71739 -6.341465,-33.13869 0.153509,-3.93775 0.35784,-7.46631 0.86918,-13.90995 0.56268,-7.26198 0.716188,-9.35869 0.869697,-12.63159 0.102162,-2.35239 0.102162,-4.75611 0.05133,-7.31282 C 37.01763,118.92244 36.76196,115.34252 36.097119,107.31353 35.1766,96.676474 34.920922,92.022531 35.023091,86.192406 c 0.154017,-7.67013 1.17619,-14.421291 3.324237,-20.81307 3.476205,-10.382407 9.869526,-17.388729 19.074718,-21.93947 7.721986,-3.78373 17.080687,-5.727446 29.814452,-6.750644 11.91592,0 20.609252,1.074028 28.126912,3.835586 9.00034,3.324237 15.69965,9.153846 20.30224,18.103884 2.9664,7.261468 4.70528,15.08614 5.6258,24.086485 0.71567,6.852814 0.86918,12.375921 0.92052,24.904843 v 3.98909 c 0.0513,6.18796 0.15299,10.53489 0.40918,14.8818 0.10216,1.68754 0.15299,2.40373 0.40866,6.44364 0.56268,8.69385 0.76753,13.19428 0.81835,18.41038 0.10268,14.67697 -1.73887,25.97887 -6.59714,35.64457 z m 15.64883,-55.99815 c -0.0513,0 -0.10217,-0.0513 -0.153,-0.0513 -0.92052,-0.3065 -1.22752,-0.51135 -1.53453,-0.86918 l -0.81836,0.61351 c 0.46052,0.61402 0.92052,0.86969 1.94372,1.22701 -0.20484,1.84155 -1.07402,2.5064 -2.55671,2.35289 -1.3297,-0.10267 -3.06909,-0.92051 -4.50095,-1.89237 -0.40918,-0.3065 -0.81784,-0.51134 -1.22702,-0.71567 -0.0513,0 -0.10268,-0.0513 -0.15402,-0.0513 -0.20433,-2.81238 -0.20433,-3.52857 -0.30649,-5.01177 l -0.15351,-2.76156 c 2.86424,0.0513 5.67662,0.92052 7.82416,2.50589 0.76753,0.56268 1.68805,1.63671 2.09722,2.55671 0.51134,0.8697 0.40917,1.63671 -0.46051,2.09722 z"
       inkscape:connector-curvature="0"
       style="stroke-width:0.513396" />
    <circle
       r="28.918531"
       cy="134.5235"
       cx="88.009956"
       id="path838-3-3-8-2"
       style="fill:#800080;fill-opacity:1;stroke:#000000;stroke-width:2.62682;stroke-linecap:round;stroke-linejoin:bevel;stroke-miterlimit:4;stroke-dasharray:none;stroke-dashoffset:0;stroke-opacity:1" />
    <text
       id="text836-9-6-8-1"
       y="150.72557"
       x="71.830017"
       style="font-style:normal;font-weight:normal;font-size:45.3613px;line-height:1.25;font-family:sans-serif;letter-spacing:0px;word-spacing:0px;fill:#ffffff;fill-opacity:1;stroke:none;stroke-width:1.13404"
       xml:space="preserve"><tspan
         style="font-style:normal;font-variant:normal;font-weight:normal;font-stretch:normal;font-family:Ubuntu;-inkscape-font-specification:Ubuntu;fill:#ffffff;fill-opacity:1;stroke-width:1.13404"
         y="150.72557"
         x="71.830017"
         id="tspan834-0-5-3-1"
         sodipodi:role="line">G</tspan></text>
    <path
       style="fill:#800080;fill-opacity:1;stroke:none;stroke-width:0.770741;stroke-miterlimit:4;stroke-dasharray:none;stroke-opacity:1"
       d="m 35.262422,166.29202 c 36.122748,6.43127 72.510468,9.05296 108.633218,0 -0.79279,5.35402 -4.93793,17.35037 -4.93793,17.35037 -18.31765,5.20321 -34.61355,14.7452 -33.37842,24.88923 -12.340164,2.06125 -20.85484,1.88615 -28.591771,0.97033 -6.361489,-20.04754 -26.702667,-24.41864 -36.623018,-21.48942 -0.563709,0.16645 -5.50834,-12.3901 -5.102079,-21.72051 z"
       id="rect3927-5-5-8-0"
       inkscape:connector-curvature="0"
       sodipodi:nodetypes="ccsccsc" />
    <path
       style="fill:#800080;fill-opacity:1;stroke:none;stroke-width:0.770741;stroke-miterlimit:4;stroke-dasharray:none;stroke-opacity:1"
       d="m 56.154963,44.09781 c 36.122752,6.431264 28.473509,7.789687 64.596267,-1.263268 7.7867,3.755467 18.20392,15.942495 19.18455,29.750892 C 113.13033,75.375124 63.174311,91.628883 36.658781,69.265744 41.948189,53.308687 47.579435,48.955765 56.154963,44.09781 Z"
       id="rect3927-7-2-8-1-1"
       inkscape:connector-curvature="0"
       sodipodi:nodetypes="ccccc" />
    <path
       style="fill:#000000;fill-opacity:1;stroke:none;stroke-width:1.15365;stroke-miterlimit:4;stroke-dasharray:none;stroke-opacity:1"
       d="m 35.262414,166.29202 c 36.211075,5.63151 72.422146,7.72309 108.633226,0 l -0.62294,4.9077 c -36.21108,8.7273 -71.799211,5.86345 -108.010286,-0.13843 z"
       id="rect3930-2-1-5-8"
       inkscape:connector-curvature="0"
       sodipodi:nodetypes="ccccc" />
    <path
       id="path3861-7-4-3-7"
       d="m 94.938468,89.02071 c 0.05133,2.60805 0.562687,5.471769 0.102169,8.233335 -0.716188,1.32969 -2.04537,1.483715 -3.221559,1.994539 -1.636707,-0.25567 -3.017744,-1.32969 -3.682077,-2.863727 -0.409179,-3.11939 0.102162,-6.085795 0.25567,-9.205185 0,-0.102678 1.9432,0.05133 3.682077,0.562679 1.482683,0.460002 2.86372,1.22702 2.86372,1.278359 z m -14.472634,0.204332 c -1.432376,5.421462 1.892377,14.268298 7.364158,7.006314 -0.409179,-3.068567 0.05133,-6.034456 0.204331,-9.051684 0.05133,-0.25567 -7.51715,1.68753 -7.568489,2.04537 z"
       inkscape:connector-curvature="0"
       style="fill:#ffffff;stroke-width:0.513396" />
    <path
       id="path3863-3-7-5-6"
       d="M 95.551978,91.424428 C 95.449299,89.889891 95.398469,89.276381 95.398469,88.509362 V 88.15153 l -0.357832,-0.102678 -6.443635,-1.994031 v -0.358356 l -0.664849,0.154025 h -0.05133 v 0.05079 l -7.26148,1.841039 -0.25567,0.05133 -0.102678,0.255154 c -1.124851,2.710735 -0.86918,6.801983 0.562679,9.307878 1.636708,2.863719 4.295584,2.914549 7.006326,-0.358348 a 5.2325321,5.2325321 0 0 0 3.835062,2.762066 h 0.154025 l 0.152992,-0.05133 c 0.20484,-0.102678 0.409171,-0.154017 0.767527,-0.307009 0.05133,0 0.05133,0 0.102162,-0.05133 1.48269,-0.511348 2.096708,-0.920519 2.608057,-1.891869 l 0.05133,-0.05133 v -0.102162 c 0.152992,-0.920527 0.204331,-1.892385 0.204331,-2.965896 0,-0.767528 -0.05133,-1.483716 -0.153508,-2.915059 z m -8.182504,-1.892377 c -0.05133,0.920519 -0.10217,1.278359 -0.152992,1.789699 -0.102678,1.892378 -0.102678,3.324238 0.05133,4.756097 -2.404242,3.068575 -4.296103,3.068575 -5.574458,0.767019 -1.227529,-2.147539 -1.483716,-5.778786 -0.56268,-8.181995 l 6.443122,-1.636708 c -0.05087,0.664849 -0.101653,1.329698 -0.204331,2.505888 z m 7.159823,7.569001 c -0.35784,0.613503 -0.818358,0.92052 -2.045886,1.329691 -0.05133,0 -0.05133,0 -0.10217,0.05087 -0.306493,0.102678 -0.51134,0.204331 -0.664841,0.25567 -1.381037,-0.25567 -2.556718,-1.17619 -3.119398,-2.454549 -0.153508,-1.381037 -0.153508,-2.812896 -0.05133,-4.704758 0.05133,-0.511856 0.05133,-0.869696 0.154017,-1.790215 0.101653,-1.175673 0.152992,-1.891862 0.152992,-2.556711 l 5.574455,1.68753 c 0,0.664849 0.05133,1.278359 0.153508,2.608057 0.102162,1.38103 0.152992,2.096709 0.152992,2.915059 0,0.971342 -0.05133,1.841038 -0.204331,2.659396 z"
       inkscape:connector-curvature="0"
       style="stroke-width:0.513396" />
    <g
       id="g3873-7-1-4-0"
       transform="matrix(0.51339601,0,0,0.51339601,48.505905,46.846766)">
      <path
         id="path3865-9-3-3-0"
         d="m 2.291,38.749 c 9.164,35.66 66.241,26.496 64.05,-9.264 C 63.75,-13.348 -6.475,-5.08 2.29,38.749"
         inkscape:connector-curvature="0"
         style="fill:#ffffff" />
      <path
         id="path3867-0-8-6-9"
         d="M 67.337,29.385 C 66.739,19.025 62.157,10.957 54.587,5.877 47.813,1.295 38.848,-0.498 29.983,0.597 21.118,1.794 12.949,5.778 7.57,12.054 1.594,19.026 -0.697,28.19 1.395,38.749 l 0.896,-0.2 -0.896,0.2 C 10.758,75.405 69.528,66.54 67.337,29.385 Z M 3.187,38.55 C 1.195,28.49 3.387,19.923 8.965,13.448 14.045,7.571 21.715,3.687 30.182,2.591 c 8.467,-1.096 16.934,0.598 23.31,4.98 7.071,4.782 11.355,12.253 11.952,22.114 2.092,34.764 -53.391,43.132 -62.256,8.865 z"
         inkscape:connector-curvature="0" />
      <ellipse
         id="ellipse3869-2-4-5-5"
         ry="10.459"
         rx="9.6619997"
         cy="32.872002"
         cx="18.030001" />
      <ellipse
         id="ellipse3871-3-8-9-6"
         ry="2.6889999"
         rx="2.2909999"
         cy="35.262001"
         cx="22.412001"
         style="fill:#ffffff" />
    </g>
    <g
       id="g3883-9-0-5-2"
       transform="matrix(0.51339601,0,0,0.51339601,90.163888,44.855818)">
      <path
         id="path3875-9-4-4-8"
         d="M 1.195,35.96 C 8.268,76.9 75.206,66.042 65.544,24.803 56.878,-12.252 -1.196,-1.992 1.195,35.96"
         inkscape:connector-curvature="0"
         style="fill:#ffffff" />
      <path
         id="path3877-7-6-9-5"
         d="M 66.44,24.604 C 57.575,-13.547 -2.19,-3.088 0.2,36.059 v 0.1 C 3.486,55.483 20.72,65.345 39.745,62.157 48.41,60.663 56.18,56.48 61.26,50.304 66.838,43.43 68.83,34.565 66.44,24.604 Z M 59.767,49.108 C 54.985,54.886 47.714,58.87 39.446,60.265 21.416,63.253 5.279,53.989 2.092,35.86 -0.1,-0.996 56.28,-10.858 64.647,25.002 c 2.192,9.463 0.399,17.731 -4.88,24.106 z"
         inkscape:connector-curvature="0" />
      <ellipse
         id="ellipse3879-0-0-1-9"
         ry="10.459"
         rx="9.4630003"
         cy="34.167"
         cx="17.631001" />
      <ellipse
         id="ellipse3881-3-3-7-4"
         ry="2.6889999"
         rx="2.191"
         cy="36.556999"
         cx="22.014"
         style="fill:#ffffff" />
    </g>
    <g
       id="g3891-9-2-5-3"
       transform="matrix(0.51339601,0,0,0.51339601,23.618512,35.564372)">
      <path
         id="path3885-8-6-5-9"
         d="m 112.785,83.002 c -7.87,0.697 -14.245,9.961 -10.16,17.332 5.378,9.762 17.431,-0.896 24.902,0.1 8.666,0.2 15.739,9.164 22.612,1.594 7.67,-8.368 -3.287,-16.536 -11.954,-20.122 z"
         inkscape:connector-curvature="0"
         style="fill:#f6d2a2" />
      <path
         id="path3887-6-9-4-0"
         d="m 151.135,89.676 c -2.69,-3.387 -7.371,-6.475 -12.452,-8.567 l -0.199,-0.1 h -0.199 l -25.5,0.997 c -8.866,0.797 -15.24,11.057 -10.958,18.826 1.694,2.989 3.985,4.483 7.073,4.682 2.29,0.1 4.682,-0.398 8.367,-1.693 0.299,-0.1 0.697,-0.2 1.195,-0.399 4.981,-1.693 6.973,-2.191 8.965,-1.892 h 0.1 c 2.39,0 4.383,0.697 8.168,2.191 4.184,1.693 5.479,2.192 7.57,2.39 2.89,0.2 5.38,-0.796 7.67,-3.286 3.885,-4.284 3.686,-8.866 0.2,-13.149 z m -1.694,11.754 c -1.892,2.092 -3.785,2.79 -6.076,2.69 -1.793,-0.1 -2.988,-0.598 -6.973,-2.192 -3.984,-1.693 -6.175,-2.29 -8.765,-2.39 -2.49,-0.3 -4.582,0.199 -9.862,1.992 -0.498,0.199 -0.896,0.299 -1.195,0.398 -7.272,2.49 -10.758,2.291 -13.149,-2.092 -3.586,-6.474 1.893,-15.24 9.364,-15.937 l 25.201,-0.997 c 4.782,1.993 9.065,4.881 11.555,7.97 2.988,3.585 3.088,7.171 -0.1,10.558 z"
         inkscape:connector-curvature="0"
         style="fill:#231f20" />
      <path
         id="path3889-5-4-1-5"
         d="m 140.178,78.719 c -3.088,-11.356 -28.987,-9.662 -28.39,3.885 1.295,10.06 31.378,7.37 28.39,-3.885 z"
         inkscape:connector-curvature="0" />
    </g>
  </g>
</svg>
